<mxfile host="app.diagrams.net" agent="Mozilla/5.0 (Macintosh; Intel Mac OS X 10_15_7) AppleWebKit/537.36 (KHTML, like Gecko) Chrome/131.0.0.0 Safari/537.36" version="26.0.4">
  <diagram name="Page-1" id="_VTIecCni8d6RQ3Fkv5Y">
    <mxGraphModel dx="1149" dy="824" grid="1" gridSize="10" guides="1" tooltips="1" connect="1" arrows="1" fold="1" page="1" pageScale="1" pageWidth="850" pageHeight="1100" math="0" shadow="0">
      <root>
        <mxCell id="0" />
        <mxCell id="1" parent="0" />
        <mxCell id="_kMXRvUKl5yziN6GAQI7-49" value="Nutzer" style="rounded=0;whiteSpace=wrap;html=1;" vertex="1" parent="1">
          <mxGeometry x="195" y="90" width="90" height="40" as="geometry" />
        </mxCell>
        <mxCell id="_kMXRvUKl5yziN6GAQI7-50" value="Wunschliste" style="rounded=0;whiteSpace=wrap;html=1;" vertex="1" parent="1">
          <mxGeometry x="530" y="330" width="120" height="60" as="geometry" />
        </mxCell>
        <mxCell id="_kMXRvUKl5yziN6GAQI7-51" value="Wunsch" style="rounded=0;whiteSpace=wrap;html=1;" vertex="1" parent="1">
          <mxGeometry x="195" y="540" width="120" height="60" as="geometry" />
        </mxCell>
        <mxCell id="_kMXRvUKl5yziN6GAQI7-60" style="rounded=0;orthogonalLoop=1;jettySize=auto;html=1;exitX=1;exitY=1;exitDx=0;exitDy=0;entryX=0;entryY=0;entryDx=0;entryDy=0;strokeColor=default;endArrow=none;endFill=0;" edge="1" parent="1" source="_kMXRvUKl5yziN6GAQI7-55" target="_kMXRvUKl5yziN6GAQI7-49">
          <mxGeometry relative="1" as="geometry" />
        </mxCell>
        <mxCell id="_kMXRvUKl5yziN6GAQI7-55" value="username" style="ellipse;whiteSpace=wrap;html=1;fontStyle=4" vertex="1" parent="1">
          <mxGeometry x="95" width="80" height="40" as="geometry" />
        </mxCell>
        <mxCell id="_kMXRvUKl5yziN6GAQI7-56" value="Verwaltet" style="rhombus;whiteSpace=wrap;html=1;" vertex="1" parent="1">
          <mxGeometry x="355" y="160" width="80" height="80" as="geometry" />
        </mxCell>
        <mxCell id="_kMXRvUKl5yziN6GAQI7-62" value="name" style="ellipse;whiteSpace=wrap;html=1;" vertex="1" parent="1">
          <mxGeometry x="195" width="80" height="40" as="geometry" />
        </mxCell>
        <mxCell id="_kMXRvUKl5yziN6GAQI7-63" value="email" style="ellipse;whiteSpace=wrap;html=1;fontStyle=4" vertex="1" parent="1">
          <mxGeometry x="65" y="60" width="80" height="60" as="geometry" />
        </mxCell>
        <mxCell id="_kMXRvUKl5yziN6GAQI7-64" value="password" style="ellipse;whiteSpace=wrap;html=1;" vertex="1" parent="1">
          <mxGeometry x="295" y="30" width="90" height="50" as="geometry" />
        </mxCell>
        <mxCell id="_kMXRvUKl5yziN6GAQI7-65" value="session_token" style="ellipse;whiteSpace=wrap;html=1;" vertex="1" parent="1">
          <mxGeometry x="65" y="160" width="100" height="40" as="geometry" />
        </mxCell>
        <mxCell id="_kMXRvUKl5yziN6GAQI7-67" value="" style="endArrow=none;html=1;rounded=0;exitX=1.001;exitY=0.546;exitDx=0;exitDy=0;exitPerimeter=0;entryX=0;entryY=0.5;entryDx=0;entryDy=0;" edge="1" parent="1" source="_kMXRvUKl5yziN6GAQI7-63" target="_kMXRvUKl5yziN6GAQI7-49">
          <mxGeometry width="50" height="50" relative="1" as="geometry">
            <mxPoint x="175" y="150" as="sourcePoint" />
            <mxPoint x="225" y="100" as="targetPoint" />
          </mxGeometry>
        </mxCell>
        <mxCell id="_kMXRvUKl5yziN6GAQI7-68" value="" style="endArrow=none;html=1;rounded=0;exitX=0.541;exitY=0.01;exitDx=0;exitDy=0;exitPerimeter=0;entryX=0.5;entryY=1;entryDx=0;entryDy=0;" edge="1" parent="1" source="_kMXRvUKl5yziN6GAQI7-49" target="_kMXRvUKl5yziN6GAQI7-62">
          <mxGeometry width="50" height="50" relative="1" as="geometry">
            <mxPoint x="435" y="300" as="sourcePoint" />
            <mxPoint x="485" y="250" as="targetPoint" />
          </mxGeometry>
        </mxCell>
        <mxCell id="_kMXRvUKl5yziN6GAQI7-69" value="" style="endArrow=none;html=1;rounded=0;exitX=1;exitY=0;exitDx=0;exitDy=0;" edge="1" parent="1" source="_kMXRvUKl5yziN6GAQI7-49" target="_kMXRvUKl5yziN6GAQI7-64">
          <mxGeometry width="50" height="50" relative="1" as="geometry">
            <mxPoint x="325" y="110" as="sourcePoint" />
            <mxPoint x="485" y="250" as="targetPoint" />
          </mxGeometry>
        </mxCell>
        <mxCell id="_kMXRvUKl5yziN6GAQI7-70" value="" style="endArrow=none;html=1;rounded=0;shape=link;exitX=1;exitY=1;exitDx=0;exitDy=0;" edge="1" parent="1" source="_kMXRvUKl5yziN6GAQI7-49" target="_kMXRvUKl5yziN6GAQI7-56">
          <mxGeometry width="50" height="50" relative="1" as="geometry">
            <mxPoint x="435" y="300" as="sourcePoint" />
            <mxPoint x="485" y="250" as="targetPoint" />
          </mxGeometry>
        </mxCell>
        <mxCell id="_kMXRvUKl5yziN6GAQI7-72" value="" style="endArrow=none;html=1;rounded=0;shape=link;" edge="1" parent="1" source="_kMXRvUKl5yziN6GAQI7-56" target="_kMXRvUKl5yziN6GAQI7-50">
          <mxGeometry width="50" height="50" relative="1" as="geometry">
            <mxPoint x="380" y="360" as="sourcePoint" />
            <mxPoint x="430" y="310" as="targetPoint" />
          </mxGeometry>
        </mxCell>
        <mxCell id="_kMXRvUKl5yziN6GAQI7-73" value="" style="endArrow=none;html=1;rounded=0;exitX=1;exitY=0;exitDx=0;exitDy=0;entryX=0.308;entryY=0.986;entryDx=0;entryDy=0;entryPerimeter=0;" edge="1" parent="1" source="_kMXRvUKl5yziN6GAQI7-65" target="_kMXRvUKl5yziN6GAQI7-49">
          <mxGeometry width="50" height="50" relative="1" as="geometry">
            <mxPoint x="435" y="300" as="sourcePoint" />
            <mxPoint x="485" y="250" as="targetPoint" />
          </mxGeometry>
        </mxCell>
        <mxCell id="_kMXRvUKl5yziN6GAQI7-74" value="name" style="ellipse;whiteSpace=wrap;html=1;" vertex="1" parent="1">
          <mxGeometry x="600" y="250" width="80" height="40" as="geometry" />
        </mxCell>
        <mxCell id="_kMXRvUKl5yziN6GAQI7-75" value="description" style="ellipse;whiteSpace=wrap;html=1;" vertex="1" parent="1">
          <mxGeometry x="680" y="270" width="80" height="40" as="geometry" />
        </mxCell>
        <mxCell id="_kMXRvUKl5yziN6GAQI7-76" value="target_date" style="ellipse;whiteSpace=wrap;html=1;" vertex="1" parent="1">
          <mxGeometry x="710" y="320" width="80" height="40" as="geometry" />
        </mxCell>
        <mxCell id="_kMXRvUKl5yziN6GAQI7-77" value="is_favorite" style="ellipse;whiteSpace=wrap;html=1;" vertex="1" parent="1">
          <mxGeometry x="720" y="430" width="80" height="40" as="geometry" />
        </mxCell>
        <mxCell id="_kMXRvUKl5yziN6GAQI7-78" value="is_archived" style="ellipse;whiteSpace=wrap;html=1;" vertex="1" parent="1">
          <mxGeometry x="630" y="450" width="80" height="40" as="geometry" />
        </mxCell>
        <mxCell id="_kMXRvUKl5yziN6GAQI7-79" value="share_token" style="ellipse;whiteSpace=wrap;html=1;" vertex="1" parent="1">
          <mxGeometry x="580" y="490" width="80" height="40" as="geometry" />
        </mxCell>
        <mxCell id="_kMXRvUKl5yziN6GAQI7-89" value="" style="rounded=0;orthogonalLoop=1;jettySize=auto;html=1;endArrow=none;endFill=0;" edge="1" parent="1" source="_kMXRvUKl5yziN6GAQI7-80" target="_kMXRvUKl5yziN6GAQI7-50">
          <mxGeometry relative="1" as="geometry" />
        </mxCell>
        <mxCell id="_kMXRvUKl5yziN6GAQI7-80" value="is_public" style="ellipse;whiteSpace=wrap;html=1;" vertex="1" parent="1">
          <mxGeometry x="740" y="370" width="80" height="40" as="geometry" />
        </mxCell>
        <mxCell id="_kMXRvUKl5yziN6GAQI7-81" value="id" style="ellipse;whiteSpace=wrap;html=1;fontStyle=4" vertex="1" parent="1">
          <mxGeometry x="510" y="260" width="80" height="40" as="geometry" />
        </mxCell>
        <mxCell id="_kMXRvUKl5yziN6GAQI7-82" value="" style="endArrow=none;html=1;rounded=0;" edge="1" parent="1" source="_kMXRvUKl5yziN6GAQI7-50" target="_kMXRvUKl5yziN6GAQI7-79">
          <mxGeometry width="50" height="50" relative="1" as="geometry">
            <mxPoint x="380" y="360" as="sourcePoint" />
            <mxPoint x="430" y="310" as="targetPoint" />
          </mxGeometry>
        </mxCell>
        <mxCell id="_kMXRvUKl5yziN6GAQI7-83" value="" style="endArrow=none;html=1;rounded=0;" edge="1" parent="1" source="_kMXRvUKl5yziN6GAQI7-51" target="_kMXRvUKl5yziN6GAQI7-92">
          <mxGeometry width="50" height="50" relative="1" as="geometry">
            <mxPoint x="395" y="460" as="sourcePoint" />
            <mxPoint x="445" y="410" as="targetPoint" />
          </mxGeometry>
        </mxCell>
        <mxCell id="_kMXRvUKl5yziN6GAQI7-84" value="" style="endArrow=none;html=1;rounded=0;" edge="1" parent="1" source="_kMXRvUKl5yziN6GAQI7-50" target="_kMXRvUKl5yziN6GAQI7-78">
          <mxGeometry width="50" height="50" relative="1" as="geometry">
            <mxPoint x="380" y="360" as="sourcePoint" />
            <mxPoint x="430" y="310" as="targetPoint" />
          </mxGeometry>
        </mxCell>
        <mxCell id="_kMXRvUKl5yziN6GAQI7-85" value="" style="endArrow=none;html=1;rounded=0;" edge="1" parent="1" source="_kMXRvUKl5yziN6GAQI7-50" target="_kMXRvUKl5yziN6GAQI7-76">
          <mxGeometry width="50" height="50" relative="1" as="geometry">
            <mxPoint x="380" y="360" as="sourcePoint" />
            <mxPoint x="430" y="310" as="targetPoint" />
          </mxGeometry>
        </mxCell>
        <mxCell id="_kMXRvUKl5yziN6GAQI7-86" value="" style="endArrow=none;html=1;rounded=0;" edge="1" parent="1" source="_kMXRvUKl5yziN6GAQI7-50" target="_kMXRvUKl5yziN6GAQI7-75">
          <mxGeometry width="50" height="50" relative="1" as="geometry">
            <mxPoint x="380" y="360" as="sourcePoint" />
            <mxPoint x="430" y="310" as="targetPoint" />
          </mxGeometry>
        </mxCell>
        <mxCell id="_kMXRvUKl5yziN6GAQI7-87" value="" style="endArrow=none;html=1;rounded=0;" edge="1" parent="1" source="_kMXRvUKl5yziN6GAQI7-74" target="_kMXRvUKl5yziN6GAQI7-50">
          <mxGeometry width="50" height="50" relative="1" as="geometry">
            <mxPoint x="380" y="360" as="sourcePoint" />
            <mxPoint x="430" y="310" as="targetPoint" />
          </mxGeometry>
        </mxCell>
        <mxCell id="_kMXRvUKl5yziN6GAQI7-88" value="" style="endArrow=none;html=1;rounded=0;" edge="1" parent="1" source="_kMXRvUKl5yziN6GAQI7-50" target="_kMXRvUKl5yziN6GAQI7-81">
          <mxGeometry width="50" height="50" relative="1" as="geometry">
            <mxPoint x="380" y="360" as="sourcePoint" />
            <mxPoint x="430" y="310" as="targetPoint" />
          </mxGeometry>
        </mxCell>
        <mxCell id="_kMXRvUKl5yziN6GAQI7-91" value="" style="endArrow=none;html=1;rounded=0;" edge="1" parent="1" source="_kMXRvUKl5yziN6GAQI7-50" target="_kMXRvUKl5yziN6GAQI7-77">
          <mxGeometry width="50" height="50" relative="1" as="geometry">
            <mxPoint x="380" y="360" as="sourcePoint" />
            <mxPoint x="430" y="310" as="targetPoint" />
          </mxGeometry>
        </mxCell>
        <mxCell id="_kMXRvUKl5yziN6GAQI7-92" value="id" style="ellipse;whiteSpace=wrap;html=1;fontStyle=4" vertex="1" parent="1">
          <mxGeometry x="255" y="630" width="80" height="40" as="geometry" />
        </mxCell>
        <mxCell id="_kMXRvUKl5yziN6GAQI7-93" value="name" style="ellipse;whiteSpace=wrap;html=1;" vertex="1" parent="1">
          <mxGeometry x="135" y="450" width="80" height="40" as="geometry" />
        </mxCell>
        <mxCell id="_kMXRvUKl5yziN6GAQI7-94" value="price" style="ellipse;whiteSpace=wrap;html=1;" vertex="1" parent="1">
          <mxGeometry x="65" y="500" width="80" height="40" as="geometry" />
        </mxCell>
        <mxCell id="_kMXRvUKl5yziN6GAQI7-95" value="description" style="ellipse;whiteSpace=wrap;html=1;" vertex="1" parent="1">
          <mxGeometry x="25" y="550" width="80" height="40" as="geometry" />
        </mxCell>
        <mxCell id="_kMXRvUKl5yziN6GAQI7-96" value="url" style="ellipse;whiteSpace=wrap;html=1;" vertex="1" parent="1">
          <mxGeometry x="35" y="600" width="80" height="40" as="geometry" />
        </mxCell>
        <mxCell id="_kMXRvUKl5yziN6GAQI7-97" value="is_fulfilled" style="ellipse;whiteSpace=wrap;html=1;dashed=1;" vertex="1" parent="1">
          <mxGeometry x="75" y="640" width="80" height="40" as="geometry" />
        </mxCell>
        <mxCell id="_kMXRvUKl5yziN6GAQI7-98" value="fulfilled_by" style="ellipse;whiteSpace=wrap;html=1;" vertex="1" parent="1">
          <mxGeometry x="155" y="660" width="80" height="40" as="geometry" />
        </mxCell>
        <mxCell id="_kMXRvUKl5yziN6GAQI7-99" value="" style="endArrow=none;html=1;rounded=0;entryX=0.739;entryY=0.033;entryDx=0;entryDy=0;entryPerimeter=0;" edge="1" parent="1" source="_kMXRvUKl5yziN6GAQI7-51" target="_kMXRvUKl5yziN6GAQI7-98">
          <mxGeometry width="50" height="50" relative="1" as="geometry">
            <mxPoint x="395" y="460" as="sourcePoint" />
            <mxPoint x="445" y="410" as="targetPoint" />
          </mxGeometry>
        </mxCell>
        <mxCell id="_kMXRvUKl5yziN6GAQI7-100" value="" style="endArrow=none;html=1;rounded=0;" edge="1" parent="1" source="_kMXRvUKl5yziN6GAQI7-51" target="_kMXRvUKl5yziN6GAQI7-97">
          <mxGeometry width="50" height="50" relative="1" as="geometry">
            <mxPoint x="395" y="460" as="sourcePoint" />
            <mxPoint x="445" y="410" as="targetPoint" />
          </mxGeometry>
        </mxCell>
        <mxCell id="_kMXRvUKl5yziN6GAQI7-101" value="" style="endArrow=none;html=1;rounded=0;" edge="1" parent="1" source="_kMXRvUKl5yziN6GAQI7-51" target="_kMXRvUKl5yziN6GAQI7-96">
          <mxGeometry width="50" height="50" relative="1" as="geometry">
            <mxPoint x="395" y="460" as="sourcePoint" />
            <mxPoint x="445" y="410" as="targetPoint" />
          </mxGeometry>
        </mxCell>
        <mxCell id="_kMXRvUKl5yziN6GAQI7-102" value="" style="endArrow=none;html=1;rounded=0;" edge="1" parent="1" source="_kMXRvUKl5yziN6GAQI7-51" target="_kMXRvUKl5yziN6GAQI7-95">
          <mxGeometry width="50" height="50" relative="1" as="geometry">
            <mxPoint x="395" y="460" as="sourcePoint" />
            <mxPoint x="445" y="410" as="targetPoint" />
          </mxGeometry>
        </mxCell>
        <mxCell id="_kMXRvUKl5yziN6GAQI7-103" value="" style="endArrow=none;html=1;rounded=0;" edge="1" parent="1" source="_kMXRvUKl5yziN6GAQI7-51" target="_kMXRvUKl5yziN6GAQI7-94">
          <mxGeometry width="50" height="50" relative="1" as="geometry">
            <mxPoint x="395" y="460" as="sourcePoint" />
            <mxPoint x="445" y="410" as="targetPoint" />
          </mxGeometry>
        </mxCell>
        <mxCell id="_kMXRvUKl5yziN6GAQI7-104" value="" style="endArrow=none;html=1;rounded=0;" edge="1" parent="1" source="_kMXRvUKl5yziN6GAQI7-51" target="_kMXRvUKl5yziN6GAQI7-93">
          <mxGeometry width="50" height="50" relative="1" as="geometry">
            <mxPoint x="395" y="460" as="sourcePoint" />
            <mxPoint x="445" y="410" as="targetPoint" />
          </mxGeometry>
        </mxCell>
        <mxCell id="_kMXRvUKl5yziN6GAQI7-105" value="besitzt" style="rhombus;whiteSpace=wrap;html=1;" vertex="1" parent="1">
          <mxGeometry x="370" y="390" width="80" height="80" as="geometry" />
        </mxCell>
        <mxCell id="_kMXRvUKl5yziN6GAQI7-106" value="" style="endArrow=none;html=1;rounded=0;shape=link;" edge="1" parent="1" source="_kMXRvUKl5yziN6GAQI7-105" target="_kMXRvUKl5yziN6GAQI7-50">
          <mxGeometry width="50" height="50" relative="1" as="geometry">
            <mxPoint x="430" y="360" as="sourcePoint" />
            <mxPoint x="480" y="310" as="targetPoint" />
          </mxGeometry>
        </mxCell>
        <mxCell id="_kMXRvUKl5yziN6GAQI7-107" value="" style="endArrow=none;html=1;rounded=0;shape=link;" edge="1" parent="1" source="_kMXRvUKl5yziN6GAQI7-105" target="_kMXRvUKl5yziN6GAQI7-51">
          <mxGeometry width="50" height="50" relative="1" as="geometry">
            <mxPoint x="430" y="360" as="sourcePoint" />
            <mxPoint x="480" y="310" as="targetPoint" />
          </mxGeometry>
        </mxCell>
        <mxCell id="_kMXRvUKl5yziN6GAQI7-109" value="N" style="text;html=1;align=center;verticalAlign=middle;whiteSpace=wrap;rounded=0;" vertex="1" parent="1">
          <mxGeometry x="295" y="520" width="60" height="30" as="geometry" />
        </mxCell>
        <mxCell id="_kMXRvUKl5yziN6GAQI7-110" value="1" style="text;html=1;align=center;verticalAlign=middle;whiteSpace=wrap;rounded=0;" vertex="1" parent="1">
          <mxGeometry x="490" y="390" width="60" height="30" as="geometry" />
        </mxCell>
        <mxCell id="_kMXRvUKl5yziN6GAQI7-111" value="N" style="text;html=1;align=center;verticalAlign=middle;whiteSpace=wrap;rounded=0;" vertex="1" parent="1">
          <mxGeometry x="470" y="300" width="60" height="30" as="geometry" />
        </mxCell>
        <mxCell id="_kMXRvUKl5yziN6GAQI7-112" value="1" style="text;html=1;align=center;verticalAlign=middle;whiteSpace=wrap;rounded=0;" vertex="1" parent="1">
          <mxGeometry x="275" y="110" width="60" height="30" as="geometry" />
        </mxCell>
        <mxCell id="_kMXRvUKl5yziN6GAQI7-113" value="Anzahl Wünsche" style="ellipse;whiteSpace=wrap;html=1;dashed=1;" vertex="1" parent="1">
          <mxGeometry x="480" y="450" width="100" height="50" as="geometry" />
        </mxCell>
        <mxCell id="_kMXRvUKl5yziN6GAQI7-114" value="" style="endArrow=none;html=1;rounded=0;" edge="1" parent="1" source="_kMXRvUKl5yziN6GAQI7-50" target="_kMXRvUKl5yziN6GAQI7-113">
          <mxGeometry width="50" height="50" relative="1" as="geometry">
            <mxPoint x="430" y="360" as="sourcePoint" />
            <mxPoint x="480" y="310" as="targetPoint" />
          </mxGeometry>
        </mxCell>
        <mxCell id="_kMXRvUKl5yziN6GAQI7-115" value="Kategorie" style="rounded=0;whiteSpace=wrap;html=1;" vertex="1" parent="1">
          <mxGeometry x="75" y="320" width="80" height="30" as="geometry" />
        </mxCell>
        <mxCell id="_kMXRvUKl5yziN6GAQI7-116" value="name" style="ellipse;whiteSpace=wrap;html=1;" vertex="1" parent="1">
          <mxGeometry x="15" y="365" width="75" height="35" as="geometry" />
        </mxCell>
        <mxCell id="_kMXRvUKl5yziN6GAQI7-118" value="" style="endArrow=none;html=1;rounded=0;" edge="1" parent="1" source="_kMXRvUKl5yziN6GAQI7-116" target="_kMXRvUKl5yziN6GAQI7-115">
          <mxGeometry width="50" height="50" relative="1" as="geometry">
            <mxPoint x="430" y="330" as="sourcePoint" />
            <mxPoint x="480" y="280" as="targetPoint" />
          </mxGeometry>
        </mxCell>
        <mxCell id="_kMXRvUKl5yziN6GAQI7-119" value="" style="rhombus;whiteSpace=wrap;html=1;" vertex="1" parent="1">
          <mxGeometry x="210" y="240" width="95" height="80" as="geometry" />
        </mxCell>
        <mxCell id="_kMXRvUKl5yziN6GAQI7-120" value="besitzt" style="rhombus;whiteSpace=wrap;html=1;" vertex="1" parent="1">
          <mxGeometry x="220" y="250" width="75" height="60" as="geometry" />
        </mxCell>
        <mxCell id="_kMXRvUKl5yziN6GAQI7-121" value="" style="endArrow=none;html=1;rounded=0;exitX=0.535;exitY=-0.002;exitDx=0;exitDy=0;exitPerimeter=0;" edge="1" parent="1" source="_kMXRvUKl5yziN6GAQI7-51" target="_kMXRvUKl5yziN6GAQI7-119">
          <mxGeometry width="50" height="50" relative="1" as="geometry">
            <mxPoint x="430" y="330" as="sourcePoint" />
            <mxPoint x="480" y="280" as="targetPoint" />
          </mxGeometry>
        </mxCell>
        <mxCell id="_kMXRvUKl5yziN6GAQI7-122" value="" style="endArrow=none;html=1;rounded=0;" edge="1" parent="1" source="_kMXRvUKl5yziN6GAQI7-119" target="_kMXRvUKl5yziN6GAQI7-49">
          <mxGeometry width="50" height="50" relative="1" as="geometry">
            <mxPoint x="430" y="340" as="sourcePoint" />
            <mxPoint x="480" y="290" as="targetPoint" />
          </mxGeometry>
        </mxCell>
        <mxCell id="_kMXRvUKl5yziN6GAQI7-123" value="" style="endArrow=none;html=1;rounded=0;shape=link;" edge="1" parent="1" source="_kMXRvUKl5yziN6GAQI7-115" target="_kMXRvUKl5yziN6GAQI7-119">
          <mxGeometry width="50" height="50" relative="1" as="geometry">
            <mxPoint x="430" y="340" as="sourcePoint" />
            <mxPoint x="480" y="290" as="targetPoint" />
          </mxGeometry>
        </mxCell>
        <mxCell id="_kMXRvUKl5yziN6GAQI7-124" value="N" style="text;html=1;align=center;verticalAlign=middle;whiteSpace=wrap;rounded=0;" vertex="1" parent="1">
          <mxGeometry x="120" y="290" width="60" height="30" as="geometry" />
        </mxCell>
        <mxCell id="_kMXRvUKl5yziN6GAQI7-125" value="1" style="text;html=1;align=center;verticalAlign=middle;whiteSpace=wrap;rounded=0;" vertex="1" parent="1">
          <mxGeometry x="235" y="140" width="60" height="30" as="geometry" />
        </mxCell>
        <mxCell id="_kMXRvUKl5yziN6GAQI7-126" value="N" style="text;html=1;align=center;verticalAlign=middle;whiteSpace=wrap;rounded=0;" vertex="1" parent="1">
          <mxGeometry x="245" y="500" width="60" height="30" as="geometry" />
        </mxCell>
      </root>
    </mxGraphModel>
  </diagram>
</mxfile>
